{"title":"Down.Periscope.HDTv.VIDI.mkv","uid":7216465,"size":8131206482,"categoryP":"video","categoryS":"movies","magnet":"?xt=urn:btih:bbd8308a439929579175bb8448170ef2517bf73b&amp;dn=Down.Periscope.HDTv.VIDI.mkv&amp;tr=udp%3A%2F%2Ftracker.openbittorrent.com%3A80&amp;tr=udp%3A%2F%2Fopen.demonii.com%3A1337&amp;tr=udp%3A%2F%2Ftracker.coppersurfer.tk%3A6969&amp;tr=udp%3A%2F%2Fexodus.desync.com%3A6969","seeders":0,"leechers":6,"uploader":"gradinaru","files":1,"time":1335393600,"description":"Lt. Cmdr. Tom Dodge is assigned as Captain to the USS Stingray, an old diesel driven submarine that has seen better days. With a crew that consists only of weird guys (and a gal), he's headed against the atomic powered USS Orlando, with the mission to destroy a dummy battleship\n\nVideo :\n\n    Width : 1 280 pixels\n    Height : 720 pixels\n    Display aspect ratio : 16:9\n    Frame rate : 23.976 fps\n    Stream size : 7.26 GiB (96%)\n    Language : English\n\nAudio \n    \n    Format : AC-3\n    Bit rate : 256 Kbps\n    Channel(s) : 6 channels\n    Sampling rate : 48.0 KHz\n    Bit depth : 16 bits\n    Compression mode : Lossy\n    Stream size : 163 MiB (2%)\n","torrent":{"xt":"urn:btih:bbd8308a439929579175bb8448170ef2517bf73b","amp;dn":"Down.Periscope.HDTv.VIDI.mkv","amp;tr":["udp%3A%2F%2Ftracker.openbittorrent.com%3A80","udp%3A%2F%2Fopen.demonii.com%3A1337","udp%3A%2F%2Ftracker.coppersurfer.tk%3A6969","udp%3A%2F%2Fexodus.desync.com%3A6969"],"infoHash":"bbd8308a439929579175bb8448170ef2517bf73b","infoHashBuffer":{"type":"Buffer","data":[187,216,48,138,67,153,41,87,145,117,187,132,72,23,14,242,81,123,247,59]},"announce":[],"urlList":[]}}